<svg width="1920" height="1370" viewBox="0 0 1920 1370" fill="none" xmlns="http://www.w3.org/2000/svg">
<circle cx="138.5" cy="555.5" r="1.5" fill="#E7D69B"/>
<circle cx="415.5" cy="274.5" r="1.5" fill="#E7D69B"/>
<circle cx="650.5" cy="767.5" r="1.5" fill="#E7D69B"/>
<circle cx="1276.5" cy="106.5" r="1.5" fill="#E7D69B"/>
<circle cx="825.5" cy="114.5" r="1.5" fill="#E7D69B"/>
<circle cx="177.5" cy="337.5" r="1.5" fill="#E7D69B"/>
<circle cx="646.5" cy="357.5" r="1.5" fill="#E7D69B"/>
<circle cx="265.5" cy="770.5" r="1.5" fill="#E7D69B"/>
<circle cx="598.5" cy="387.5" r="1.5" fill="#E7D69B"/>
<circle cx="265.5" cy="770.5" r="1.5" fill="#E7D69B"/>
<circle cx="693.5" cy="390.5" r="1.5" fill="#E7D69B"/>
<circle cx="693.5" cy="390.5" r="1.5" fill="#E7D69B"/>
<circle cx="693.5" cy="390.5" r="1.5" fill="#E7D69B"/>
<circle cx="1.5" cy="481.5" r="1.5" fill="#E7D69B"/>
<circle cx="96.5" cy="100.5" r="1.5" fill="#E7D69B"/>
<circle cx="557.5" cy="-0.5" r="1.5" fill="#E7D69B"/>
<circle cx="1177.5" cy="48.5" r="1.5" fill="#E7D69B"/>
<circle cx="1095.5" cy="751.5" r="1.5" fill="#E7D69B"/>
<circle cx="235.5" cy="1153.5" r="1.5" fill="#E7D69B"/>
<circle cx="512.5" cy="872.5" r="1.5" fill="#E7D69B"/>
<circle cx="747.5" cy="1365.5" r="1.5" fill="#E7D69B"/>
<circle cx="1373.5" cy="704.5" r="1.5" fill="#E7D69B"/>
<circle cx="922.5" cy="712.5" r="1.5" fill="#E7D69B"/>
<circle cx="512.5" cy="584.5" r="1.5" fill="#E7D69B"/>
<circle cx="274.5" cy="935.5" r="1.5" fill="#E7D69B"/>
<circle cx="743.5" cy="955.5" r="1.5" fill="#E7D69B"/>
<circle cx="362.5" cy="1368.5" r="1.5" fill="#E7D69B"/>
<circle cx="695.5" cy="985.5" r="1.5" fill="#E7D69B"/>
<circle cx="362.5" cy="1368.5" r="1.5" fill="#E7D69B"/>
<circle cx="790.5" cy="988.5" r="1.5" fill="#E7D69B"/>
<circle cx="790.5" cy="988.5" r="1.5" fill="#E7D69B"/>
<circle cx="790.5" cy="988.5" r="1.5" fill="#E7D69B"/>
<circle cx="98.5" cy="1079.5" r="1.5" fill="#E7D69B"/>
<circle cx="193.5" cy="698.5" r="1.5" fill="#E7D69B"/>
<circle cx="654.5" cy="597.5" r="1.5" fill="#E7D69B"/>
<circle cx="1274.5" cy="646.5" r="1.5" fill="#E7D69B"/>
<circle cx="1192.5" cy="1349.5" r="1.5" fill="#E7D69B"/>
<circle cx="1285.5" cy="896.5" r="1.5" fill="#E7D69B"/>
<circle cx="1562.5" cy="615.5" r="1.5" fill="#E7D69B"/>
<circle cx="1797.5" cy="1108.5" r="1.5" fill="#E7D69B"/>
<circle cx="1562.5" cy="327.5" r="1.5" fill="#E7D69B"/>
<circle cx="1324.5" cy="678.5" r="1.5" fill="#E7D69B"/>
<circle cx="1793.5" cy="698.5" r="1.5" fill="#E7D69B"/>
<circle cx="1412.5" cy="1111.5" r="1.5" fill="#E7D69B"/>
<circle cx="1745.5" cy="728.5" r="1.5" fill="#E7D69B"/>
<circle cx="1412.5" cy="1111.5" r="1.5" fill="#E7D69B"/>
<circle cx="1840.5" cy="731.5" r="1.5" fill="#E7D69B"/>
<circle cx="1840.5" cy="731.5" r="1.5" fill="#E7D69B"/>
<circle cx="1840.5" cy="731.5" r="1.5" fill="#E7D69B"/>
<circle cx="1148.5" cy="822.5" r="1.5" fill="#E7D69B"/>
<circle cx="1243.5" cy="441.5" r="1.5" fill="#E7D69B"/>
<circle cx="1704.5" cy="340.5" r="1.5" fill="#E7D69B"/>
</svg>
