<svg width="380" height="553" viewBox="0 0 380 553" fill="none" xmlns="http://www.w3.org/2000/svg">
<ellipse cx="275.464" cy="493.07" rx="0.649061" ry="0.724269" transform="rotate(-90 275.464 493.07)" fill="#E7D69B"/>
<ellipse cx="139.784" cy="373.21" rx="0.649061" ry="0.724269" transform="rotate(-90 139.784 373.21)" fill="#E7D69B"/>
<ellipse cx="377.827" cy="271.524" rx="0.649061" ry="0.724269" transform="rotate(-90 377.827 271.524)" fill="#E7D69B"/>
<ellipse cx="58.6658" cy="0.649035" rx="0.649061" ry="0.724269" transform="rotate(-90 58.6658 0.649035)" fill="#E7D69B"/>
<ellipse cx="62.5286" cy="195.8" rx="0.649061" ry="0.724269" transform="rotate(-90 62.5286 195.8)" fill="#E7D69B"/>
<ellipse cx="0.724269" cy="373.21" rx="0.649061" ry="0.724269" transform="rotate(-90 0.724269 373.21)" fill="#E7D69B"/>
<ellipse cx="170.203" cy="476.194" rx="0.649061" ry="0.724269" transform="rotate(-90 170.203 476.194)" fill="#E7D69B"/>
<ellipse cx="179.86" cy="273.255" rx="0.649061" ry="0.724269" transform="rotate(-90 179.86 273.255)" fill="#E7D69B"/>
<ellipse cx="379.276" cy="438.116" rx="0.649061" ry="0.724269" transform="rotate(-90 379.276 438.116)" fill="#E7D69B"/>
<ellipse cx="194.346" cy="294.025" rx="0.649061" ry="0.724269" transform="rotate(-90 194.346 294.025)" fill="#E7D69B"/>
<ellipse cx="379.276" cy="438.116" rx="0.649061" ry="0.724269" transform="rotate(-90 379.276 438.116)" fill="#E7D69B"/>
<ellipse cx="195.794" cy="252.917" rx="0.649061" ry="0.724269" transform="rotate(-90 195.794 252.917)" fill="#E7D69B"/>
<ellipse cx="195.794" cy="252.917" rx="0.649061" ry="0.724269" transform="rotate(-90 195.794 252.917)" fill="#E7D69B"/>
<ellipse cx="195.794" cy="252.917" rx="0.649061" ry="0.724269" transform="rotate(-90 195.794 252.917)" fill="#E7D69B"/>
<ellipse cx="239.733" cy="552.351" rx="0.649061" ry="0.724269" transform="rotate(-90 239.733 552.351)" fill="#E7D69B"/>
<ellipse cx="55.7687" cy="511.244" rx="0.649061" ry="0.724269" transform="rotate(-90 55.7687 511.244)" fill="#E7D69B"/>
<ellipse cx="7.00125" cy="311.766" rx="0.649061" ry="0.724269" transform="rotate(-90 7.00125 311.766)" fill="#E7D69B"/>
<ellipse cx="30.6608" cy="43.4871" rx="0.649061" ry="0.724269" transform="rotate(-90 30.6608 43.4871)" fill="#E7D69B"/>
<ellipse cx="370.102" cy="78.9691" rx="0.649061" ry="0.724269" transform="rotate(-90 370.102 78.9691)" fill="#E7D69B"/>
</svg>
